<?xml version="1.0" standalone="no"?><!DOCTYPE svg PUBLIC "-//W3C//DTD SVG 1.1//EN" "http://www.w3.org/Graphics/SVG/1.1/DTD/svg11.dtd"><svg t="1668224298868" class="icon" viewBox="0 0 1024 1024" version="1.1" xmlns="http://www.w3.org/2000/svg" p-id="1593" xmlns:xlink="http://www.w3.org/1999/xlink" width="200" height="200"><path d="M954.908 399.826c-7.71-22.3-27.57-38.63-51.46-42.175l-232.529-34.567-101.1-209.737c-10.61-22.027-33.38-36.12-58.417-36.12-25.007 0-47.785 14.092-58.422 36.12l-101.07 209.734-232.554 34.567c-23.887 3.548-43.747 19.875-51.427 42.177-7.7 22.345-1.88 46.962 14.992 63.78l170.405 170.082-39.525 235.909c-4.01 23.74 6.305 47.59 26.49 61.5 11.097 7.6 24.13 11.47 37.172 11.47 10.71 0 21.457-2.62 31.23-7.82l202.709-109.1 202.747 109.1c9.77 5.2 20.51 7.82 31.2 7.82 13.065 0 26.07-3.87 37.2-11.47 20.175-13.91 30.46-37.76 26.48-61.5l-39.545-235.909 170.435-170.082C956.788 446.791 962.573 422.174 954.908 399.826L954.908 399.826z" p-id="1594"></path></svg>