<?xml version="1.0" standalone="no"?><!DOCTYPE svg PUBLIC "-//W3C//DTD SVG 1.1//EN" "http://www.w3.org/Graphics/SVG/1.1/DTD/svg11.dtd"><svg t="1668224314130" class="icon" viewBox="0 0 1024 1024" version="1.1" xmlns="http://www.w3.org/2000/svg" p-id="1747" xmlns:xlink="http://www.w3.org/1999/xlink" width="200" height="200"><path d="M853.80608 120.32 177.87392 120.32c-37.45792 0-67.79392 30.13632-67.79392 67.31264l0 541.63456c0 36.95104 30.27968 67.31264 67.62496 67.31264l33.49504 0c19.13856 0 34.13504 15.19104 34.13504 33.93536l0 58.20928c0 37.76512 26.74176 53.5296 59.73504 35.86048l209.25952-112.08192c16.12288-8.63744 44.72832-15.9232 63.23712-15.9232l276.54144 0c37.23776 0 67.50208-30.1312 67.50208-67.31264L921.61024 187.63264C921.6 150.69184 891.24864 120.32 853.80608 120.32zM682.26048 578.33984 344.29952 578.33984c-18.72384 0-33.89952-15.00672-33.89952-33.80736 0-18.68288 15.40608-33.8176 33.89952-33.8176l337.96096 0c18.72384 0 33.89952 15.01184 33.89952 33.8176C716.16 563.2 700.74368 578.33984 682.26048 578.33984zM682.26048 375.46496 344.29952 375.46496c-18.72384 0-33.89952-15.00672-33.89952-33.81248 0-18.67264 15.40608-33.81248 33.89952-33.81248l337.96096 0c18.72384 0 33.89952 15.00672 33.89952 33.81248C716.16 360.32 700.74368 375.46496 682.26048 375.46496z" p-id="1748"></path></svg>