<?xml version="1.0" standalone="no"?><!DOCTYPE svg PUBLIC "-//W3C//DTD SVG 1.1//EN" "http://www.w3.org/Graphics/SVG/1.1/DTD/svg11.dtd"><svg t="1668279123901" class="icon" viewBox="0 0 1024 1024" version="1.1" xmlns="http://www.w3.org/2000/svg" p-id="1710" xmlns:xlink="http://www.w3.org/1999/xlink" width="200" height="200"><path d="M982.3 336.8c-26-53.3-63.1-101.1-110.3-142.1-46.9-40.7-101.4-72.6-162-94.9-62.5-23-128.8-34.6-197.2-34.6-68.3 0-134.7 11.6-197.2 34.6-60.6 22.3-115.1 54.2-162 94.9-47.2 40.9-84.3 88.8-110.3 142.1C16.2 392.4 2.5 451.5 2.5 512.4s13.7 120 40.7 175.7c23.8 48.8 56.9 93 98.6 131.6-4.3 8.6-11.6 20.6-16.5 28.7-8.3 13.7-16.9 27.8-22.3 40.4-4 9.3-6.1 17.1-6.5 24.6-0.8 15.5 6.1 29.4 18.6 37.2 24.3 15.1 60.3 5.7 121.8-12.3 22-6.4 58.4-17 69.9-16.6 65.1 25.1 134.4 37.9 206.1 37.9 68.4 0 134.7-11.7 197.1-34.6 60.6-22.3 115.1-54.2 162-94.9 47.2-40.9 84.3-88.8 110.3-142.1 27.1-55.6 40.8-114.7 40.8-175.6s-13.7-120-40.8-175.6z m-152 444.9c-41 35.6-88.8 63.5-142.1 83.1-55.4 20.4-114.4 30.7-175.2 30.7-64.4 0-126.5-11.5-184.6-34.2-6.4-2.5-13.5-3.6-21.6-3.6-21 0-48.5 7.7-87.8 19-14.7 4.4-29.9 8.8-43.3 12.1 1.5-2.6 3.1-5.1 4.4-7.3 8.2-13.4 16.6-27.2 22.1-39.7 4-8.9 6.1-16.4 6.9-23.5 2.1-19.8-7.6-31.4-13.5-36.5-83.3-72.2-129.1-167.9-129.1-269.4s45.9-197.2 129.2-269.5c41-35.6 88.8-63.5 142.1-83.1 55.4-20.4 114.4-30.7 175.2-30.7s119.8 10.3 175.2 30.7c53.3 19.6 101.1 47.5 142.1 83.1 83.3 72.2 129.1 167.9 129.1 269.4s-45.8 197.1-129.1 269.4z" p-id="1711"></path><path d="M311.1 513.6m-48 0a48 48 0 1 0 96 0 48 48 0 1 0-96 0Z" p-id="1712"></path><path d="M512.1 513.6m-48 0a48 48 0 1 0 96 0 48 48 0 1 0-96 0Z" p-id="1713"></path><path d="M713.1 513.6m-48 0a48 48 0 1 0 96 0 48 48 0 1 0-96 0Z" p-id="1714"></path></svg>