<?xml version="1.0" standalone="no"?><!DOCTYPE svg PUBLIC "-//W3C//DTD SVG 1.1//EN" "http://www.w3.org/Graphics/SVG/1.1/DTD/svg11.dtd"><svg t="1666085368534" class="icon" viewBox="0 0 1024 1024" version="1.1" xmlns="http://www.w3.org/2000/svg" p-id="7141" xmlns:xlink="http://www.w3.org/1999/xlink" width="200" height="200"><path d="M359.59 881.74H233.47c-73.05 0-132.48-59.43-132.48-132.48V196.71c0-73.05 59.43-132.48 132.48-132.48h476.09c73.05 0 132.48 59.43 132.48 132.48v203.26c0 24.72-20.04 44.77-44.77 44.77s-44.77-20.04-44.77-44.77V196.71c0-23.69-19.26-42.95-42.95-42.95H233.47c-23.69 0-42.95 19.26-42.95 42.95v552.55c0 23.69 19.26 42.95 42.95 42.95h126.12c24.72 0 44.77 20.04 44.77 44.77 0 24.72-20.04 44.76-44.77 44.76z" p-id="7142"></path><path d="M584.71 339.05H314.87c-24.72 0-44.77-20.04-44.77-44.77s20.04-44.77 44.77-44.77h269.84c24.72 0 44.77 20.04 44.77 44.77s-20.05 44.77-44.77 44.77zM401.91 515.88h-87.04c-24.72 0-44.77-20.04-44.77-44.77 0-24.72 20.04-44.77 44.77-44.77h87.04c24.72 0 44.77 20.04 44.77 44.77 0 24.73-20.05 44.77-44.77 44.77zM678.55 959.78c-134.8 0-244.46-109.66-244.46-244.46s109.66-244.46 244.46-244.46 244.46 109.66 244.46 244.46-109.66 244.46-244.46 244.46z m0-399.4c-85.42 0-154.93 69.51-154.93 154.93s69.51 154.93 154.93 154.93 154.93-69.51 154.93-154.93-69.51-154.93-154.93-154.93z" p-id="7143"></path><path d="M678.55 611.78l33.64 68.16 75.22 10.93-54.43 53.05 12.85 74.91-67.28-35.37-67.28 35.37 12.85-74.91-54.43-53.05 75.22-10.93z" p-id="7144"></path></svg>