<?xml version="1.0" standalone="no"?><!DOCTYPE svg PUBLIC "-//W3C//DTD SVG 1.1//EN" "http://www.w3.org/Graphics/SVG/1.1/DTD/svg11.dtd"><svg t="1668386600100" class="icon" viewBox="0 0 1024 1024" version="1.1" xmlns="http://www.w3.org/2000/svg" p-id="7672" xmlns:xlink="http://www.w3.org/1999/xlink" width="200" height="200"><path d="M793.1 959.9H232.9C158.5 959.9 98 899.4 98 825V201.5c0-74.4 60.5-134.9 134.9-134.9H793c74.4 0 134.9 60.5 134.9 134.9V825c0.1 74.4-60.4 134.9-134.8 134.9z m-560.2-804c-25.1 0-45.6 20.5-45.6 45.6V825c0 25.1 20.5 45.6 45.6 45.6H793c25.1 0 45.6-20.5 45.6-45.6V201.5c0-25.1-20.5-45.6-45.6-45.6H232.9z" p-id="7673"></path><path d="M707.9 365.7H322.1c-24.7 0-44.7-20-44.7-44.7 0-24.7 20-44.7 44.7-44.7h385.7c24.7 0 44.7 20 44.7 44.7 0 24.7-20 44.7-44.6 44.7zM707.9 557.1H322.1c-24.7 0-44.7-20-44.7-44.7s20-44.7 44.7-44.7h385.7c24.7 0 44.7 20 44.7 44.7s-20 44.7-44.6 44.7zM573.3 748.5H322.1c-24.7 0-44.7-20-44.7-44.7 0-24.7 20-44.7 44.7-44.7h251.2c24.7 0 44.7 20 44.7 44.7 0 24.7-20 44.7-44.7 44.7z" p-id="7674"></path></svg>