<?xml version="1.0" standalone="no"?><!DOCTYPE svg PUBLIC "-//W3C//DTD SVG 1.1//EN" "http://www.w3.org/Graphics/SVG/1.1/DTD/svg11.dtd"><svg t="1668445940496" class="icon" viewBox="0 0 1024 1024" version="1.1" xmlns="http://www.w3.org/2000/svg" p-id="7179" xmlns:xlink="http://www.w3.org/1999/xlink" width="200" height="200"><path d="M455.121455 56.878545l1.024 0.325819 2.932363 1.024c35.514182 12.381091 295.330909 112.919273 232.634182 385.070545 0 0 33.605818-25.739636 67.258182-77.265454 0 0 151.272727 120.226909 151.272727 291.93309 0 120.226909-100.864 223.278545-302.545454 309.15491h-24.529455c67.258182-97.326545 70.050909-177.477818 8.378182-240.453819C457.169455 597.876364 516.002909 512 516.002909 512s-142.336 69.073455-169.984 197.818182c-14.894545 69.026909 3.351273 155.322182 94.347636 257.303273h-13.637818c-170.682182-56.878545-312.925091-169.611636-312.925091-341.364364 0-320.884364 318.138182-267.310545 341.364364-568.878546z" p-id="7180"></path></svg>