<?xml version="1.0" standalone="no"?><!DOCTYPE svg PUBLIC "-//W3C//DTD SVG 1.1//EN" "http://www.w3.org/Graphics/SVG/1.1/DTD/svg11.dtd"><svg t="1666598257074" class="icon" viewBox="0 0 1024 1024" version="1.1" xmlns="http://www.w3.org/2000/svg" p-id="8681" xmlns:xlink="http://www.w3.org/1999/xlink" width="200" height="200"><path d="M911.59 452.2c-8.8 0-17.71-2.6-25.48-8.07L530.41 194.5c-14.33-10.07-33.56-9.96-47.85 0.35L138.38 443.77c-19.88 14.42-47.61 9.93-61.99-9.95-14.37-19.86-9.93-47.63 9.95-61.99l344.17-248.95c44.9-32.46 105.57-32.92 150.9-1.08l355.73 249.66c20.06 14.07 24.91 41.78 10.82 61.86-8.62 12.29-22.39 18.88-36.37 18.88zM744.49 925.77H277.84c-71.46 0-129.61-58.15-129.61-129.61V514.15c0-24.52 19.88-44.4 44.4-44.4s44.4 19.88 44.4 44.4v282.01c0 22.51 18.3 40.8 40.8 40.8h466.65c22.51 0 40.8-18.3 40.8-40.8V514.15c0-24.52 19.88-44.4 44.4-44.4s44.4 19.88 44.4 44.4v282.01c0.02 71.46-58.13 129.61-129.59 129.61z" p-id="8682"></path><path d="M513.76 742.87c-82.58 0-149.78-67.19-149.78-149.78s67.19-149.78 149.78-149.78 149.75 67.19 149.75 149.78-67.17 149.78-149.75 149.78z m0-210.75c-33.63 0-60.97 27.34-60.97 60.97 0 33.63 27.34 60.97 60.97 60.97 33.61 0 60.95-27.34 60.95-60.97-0.01-33.63-27.35-60.97-60.95-60.97z" p-id="8683"></path></svg>