<?xml version="1.0" standalone="no"?><!DOCTYPE svg PUBLIC "-//W3C//DTD SVG 1.1//EN" "http://www.w3.org/Graphics/SVG/1.1/DTD/svg11.dtd"><svg t="1668279112098" class="icon" viewBox="0 0 1024 1024" version="1.1" xmlns="http://www.w3.org/2000/svg" p-id="1389" xmlns:xlink="http://www.w3.org/1999/xlink" width="200" height="200"><path d="M956.4 479.8c-0.1-34.8-13.8-67.5-38.6-91.9-24.7-24.5-57.5-37.9-92.3-37.7l-174.2 1.1c31.8-82.4 21.5-175.8-29-249.7-18.8-27.5-51-41.8-84.1-37.1-33 4.6-60.1 27.2-70.6 58.8l-19.8 59.6-0.4 2.4c-9 52.5-32.1 101.7-66.9 142.1-26.2 30.4-58.2 55-94.1 72.5-3.6-27.7-27.4-49.1-56.1-49.1H119.6C88.4 350.6 63 376 63 407.2V902c0 31.2 25.4 56.6 56.6 56.6h110.9c31.2 0 56.6-25.4 56.6-56.6v-1.6c51.6 20.1 155.5 53.5 285.1 57.2 45.6 1.3 88.7 2.1 128.1 2.4h1.6c89 0 167.8-56.5 196.2-141l26.2-77.9c21.8-64.6 32.6-131.9 32.4-200l-0.3-61.3zM223 894.6h-96v-480h96v480z m640.6-173.9l-26.2 77.9C817.7 857 763.3 896 701.8 896h-1.1c-38.9-0.3-81.6-1.1-126.8-2.4-87.7-2.5-162.8-20.1-210.3-34.5-36.8-11.1-63.3-22.1-75.6-27.6l-1-1.6V469.3c54.8-21.2 103.6-55.6 142.1-100.2 41.8-48.6 69.8-107.5 81-170.6l18.3-55c4.1-12.3 14.5-15 18.8-15.6s15-0.8 22.3 9.9c42.6 62.3 47.7 142.7 13.5 209.9-7.5 14.6-6.7 31.7 1.9 45.7 8.6 13.9 23.4 22.2 39.7 22.2h0.3l201-1.3c17.7-0.1 34.3 6.7 46.9 19.1 12.6 12.4 19.5 29 19.6 46.7l0.2 61.3c0.3 61-9.5 121.4-29 179.3z" p-id="1390"></path></svg>