<?xml version="1.0" standalone="no"?><!DOCTYPE svg PUBLIC "-//W3C//DTD SVG 1.1//EN" "http://www.w3.org/Graphics/SVG/1.1/DTD/svg11.dtd"><svg t="1666598343838" class="icon" viewBox="0 0 1024 1024" version="1.1" xmlns="http://www.w3.org/2000/svg" p-id="8840" xmlns:xlink="http://www.w3.org/1999/xlink" width="200" height="200"><path d="M512 960.4c-23.2 0-46.5-6-67.2-17.9L173.5 785.8c-41.4-23.9-67.2-68.5-67.2-116.3V356.1c0-47.8 25.7-92.4 67.2-116.3L444.8 83.1c41.4-23.9 92.9-23.9 134.3 0l271.4 156.7c41.4 23.9 67.2 68.5 67.2 116.3v313.4c0 47.8-25.7 92.4-67.2 116.3L579.2 942.5c-20.7 11.9-44 17.9-67.2 17.9z m0-805.6c-7.7 0-15.4 2-22.3 6L218.3 317.5c-13.8 7.9-22.3 22.7-22.3 38.6v313.4c0 15.9 8.5 30.7 22.3 38.6l271.4 156.7c13.8 7.9 30.8 7.9 44.6 0l271.4-156.7c13.8-7.9 22.3-22.7 22.3-38.6V356.1c0-15.9-8.5-30.7-22.3-38.6L534.3 160.8c-6.9-4-14.6-6-22.3-6z" p-id="8841"></path><path d="M514 559c-7.8 0-15.5-2-22.4-6L270.9 425.4c-21.5-12.4-28.8-39.8-16.4-61.3 12.4-21.5 39.8-28.8 61.3-16.4l198.1 114.5 189.7-110.9c21.4-12.5 48.9-5.3 61.4 16.1 12.5 21.4 5.3 48.9-16.1 61.4l-212.2 124c-7 4.1-14.9 6.2-22.7 6.2z" p-id="8842"></path><path d="M512 805.8c-24.8 0-44.9-20.1-44.9-44.9V514.1c0-24.8 20.1-44.9 44.9-44.9s44.9 20.1 44.9 44.9V761c0 24.7-20.1 44.8-44.9 44.8z" p-id="8843"></path></svg>