<?xml version="1.0" standalone="no"?><!DOCTYPE svg PUBLIC "-//W3C//DTD SVG 1.1//EN" "http://www.w3.org/Graphics/SVG/1.1/DTD/svg11.dtd"><svg t="1666598953527" class="icon" viewBox="0 0 1024 1024" version="1.1" xmlns="http://www.w3.org/2000/svg" p-id="9000" xmlns:xlink="http://www.w3.org/1999/xlink" width="200" height="200"><path d="M783.1 899.3H242.9c-97.7 0-177.3-79.5-177.3-177.3V302.6c0-97.7 79.5-177.3 177.3-177.3H783c97.7 0 177.3 79.5 177.3 177.3V722c0.1 97.7-79.5 177.3-177.2 177.3zM242.9 214.8c-48.4 0-87.8 39.4-87.8 87.8V722c0 48.4 39.4 87.8 87.8 87.8H783c48.4 0 87.8-39.4 87.8-87.8V302.6c0-48.4-39.4-87.8-87.8-87.8H242.9z" p-id="9001"></path><path d="M513 600.5c-24.9 0-49.9-7.3-71.6-21.8l-2.9-2.1-214.9-170.1c-19.4-15.3-22.7-43.5-7.3-62.8 15.3-19.4 43.5-22.6 62.8-7.3l213.2 168.8c12.7 7.8 28.7 7.8 41.5 0L747 336.4c19.3-15.3 47.5-12.1 62.8 7.3 15.3 19.4 12.1 47.5-7.3 62.8L584.6 578.7c-21.7 14.5-46.7 21.8-71.6 21.8z" p-id="9002"></path></svg>