<?xml version="1.0" standalone="no"?><!DOCTYPE svg PUBLIC "-//W3C//DTD SVG 1.1//EN" "http://www.w3.org/Graphics/SVG/1.1/DTD/svg11.dtd"><svg t="1665452637914" class="icon" viewBox="0 0 1024 1024" version="1.1" xmlns="http://www.w3.org/2000/svg" p-id="6560" xmlns:xlink="http://www.w3.org/1999/xlink" width="200" height="200"><path d="M796.6 502.1H229.4v-155c0-156.4 127.2-283.6 283.6-283.6s283.6 127.2 283.6 283.6v155z m-477.4-89.7h387.6v-65.3c0-106.9-86.9-193.8-193.8-193.8s-193.8 86.9-193.8 193.8v65.3z" p-id="6561"></path><path d="M774.1 961.1H251.9c-73.7 0-133.6-59.9-133.6-133.6V545.9c0-73.7 59.9-133.6 133.6-133.6H774c73.7 0 133.6 59.9 133.6 133.6v281.6c0.1 73.7-59.9 133.6-133.5 133.6z m-522.2-459c-24.2 0-43.8 19.7-43.8 43.8v281.6c0 24.2 19.7 43.8 43.8 43.8H774c24.2 0 43.8-19.7 43.8-43.8V545.9c0-24.2-19.7-43.8-43.8-43.8H251.9z" p-id="6562"></path><path d="M513 777.5c-24.8 0-44.9-20.1-44.9-44.9v-73.4c0-24.8 20.1-44.9 44.9-44.9s44.9 20.1 44.9 44.9v73.4c0 24.8-20.1 44.9-44.9 44.9z" p-id="6563"></path></svg>