<?xml version="1.0" standalone="no"?><!DOCTYPE svg PUBLIC "-//W3C//DTD SVG 1.1//EN" "http://www.w3.org/Graphics/SVG/1.1/DTD/svg11.dtd"><svg t="1667275322919" class="icon" viewBox="0 0 1024 1024" version="1.1" xmlns="http://www.w3.org/2000/svg" p-id="7803" xmlns:xlink="http://www.w3.org/1999/xlink" width="200" height="200"><path d="M417.8 644.6c-13.1 0-26.2-4.1-37.3-12.2-19.7-14.3-29.4-38.2-25.2-62.2l10.7-62.4-45.4-44.2c-17.4-17-23.6-41.9-16.1-65.1 7.5-23.2 27.2-39.8 51.3-43.3l62.7-9.1 28-56.8c10.8-21.9 32.7-35.4 57-35.4 24.4 0 46.2 13.6 57 35.5l28 56.8 62.7 9.1c24.1 3.5 43.8 20.1 51.3 43.2 7.5 23.2 1.4 48.1-16.1 65.1L641 507.8l10.7 62.4c4.1 24-5.6 47.8-25.3 62.2-19.7 14.3-45.4 16.2-66.9 4.8l-56.1-29.5-56.1 29.5c-9.3 5-19.4 7.4-29.5 7.4z m85.7-129.7c10.2 0 20.3 2.4 29.6 7.3l21.6 11.3-4.1-24c-3.5-20.6 3.3-41.6 18.2-56.2l17.5-17-24.1-3.5c-20.8-3-38.6-16.1-47.9-34.8l-10.8-21.8-10.8 21.8c-9.2 18.7-27.1 31.7-47.8 34.8l-24.2 3.5 17.4 17c15 14.6 21.8 35.6 18.3 56.3l-4.1 24 21.6-11.3c9.3-5 19.4-7.4 29.6-7.4z m-127.9 2.4c0.1 0 0.1 0.1 0 0z m262.7-73.5h0.2-0.2zM383 399.5z m29.4-41.2s0 0.1 0 0z m182.1 0z" p-id="7804"></path><path d="M219.8 959c-25 0-49.7-7.4-70.9-21.9-34.2-23.4-54.6-62.1-54.6-103.6V189.4c0-69.2 56.3-125.5 125.5-125.5h567.3c69.2 0 125.5 56.3 125.5 125.5v644.2c0 41.4-20.4 80.1-54.6 103.5-34.2 23.4-77.7 28.4-116.3 13.4l-225.2-87.4c-8.4-3.3-17.6-3.3-26 0l-225.3 87.4c-14.7 5.7-30.1 8.5-45.4 8.5z m554.3-91.9c11.2 4.4 23.4 3 33.3-3.8 9.9-6.8 15.6-17.6 15.6-29.7V189.4c0-19.8-16.1-36-36-36H219.8c-19.8 0-36 16.1-36 36v644.2c0 12.1 5.7 22.9 15.6 29.7 10 6.8 22.1 8.2 33.3 3.9L458 779.6c29.2-11.4 61.5-11.4 90.8 0l225.3 87.5z" p-id="7805"></path></svg>