<?xml version="1.0" standalone="no"?><!DOCTYPE svg PUBLIC "-//W3C//DTD SVG 1.1//EN" "http://www.w3.org/Graphics/SVG/1.1/DTD/svg11.dtd"><svg t="1668964215959" class="icon" viewBox="0 0 1024 1024" version="1.1" xmlns="http://www.w3.org/2000/svg" p-id="1389" xmlns:xlink="http://www.w3.org/1999/xlink" width="200" height="200"><path d="M926.2 515.9c-16.7 0-30.6 12.8-31.9 29.4-7.2 90.5-45.9 174.7-110.8 239.7-71.8 71.8-169.6 112.2-271.2 112.1-102-0.1-197.9-39.9-270.1-112.1-72.3-72.3-112.1-168.4-112.1-270.6 0-102.2 39.8-198.3 112.1-270.6 65.1-65.1 149.6-103.9 240.4-110.9 16.7-1.3 29.5-15.2 29.5-31.9 0-18.7-16-33.4-34.6-31.9-47.8 3.7-94.3 15-138.5 33.7-53.2 22.5-101 54.7-142 95.7s-73.2 88.8-95.7 142c-23.4 55-35.2 113.5-35.2 173.8s11.8 118.8 35.1 173.9c22.5 53.2 54.7 101 95.7 142s88.8 73.2 142 95.7C394 949.2 452.5 961 512.8 961c60.3 0 118.8-11.8 173.9-35.1 53.2-22.5 101-54.7 142-95.7s73.2-88.8 95.7-142c18.6-44 29.9-90.2 33.7-137.7 1.5-18.6-13.1-34.6-31.9-34.6z" p-id="1390"></path><path d="M451.3 540.6C450 558 463.7 573 481.2 573h4c15.7 0 28.7-12.1 29.9-27.7 6.5-83.2 42-160.5 101.6-220.1C682.9 259 771 222.5 864.6 222.5c2.6 0 5-0.3 7.4-0.9l-29.8 73.3c-6.7 16.4 1.2 35 17.6 41.7 16.4 6.7 35-1.2 41.7-17.6l52-127.8c11.6-28.4-2.1-60.8-30.5-72.3L797.9 68c-16.4-6.7-35 1.2-41.7 17.6-6.7 16.4 1.2 35 17.6 41.7l77.4 31.5c-51.2 1.6-100.9 12.5-147.9 32.4-49.4 20.9-93.7 50.8-131.7 88.8-38.1 38.1-67.9 82.4-88.8 131.7-17.5 41.1-28 84.4-31.5 128.9z" p-id="1391"></path></svg>