<?xml version="1.0" standalone="no"?><!DOCTYPE svg PUBLIC "-//W3C//DTD SVG 1.1//EN" "http://www.w3.org/Graphics/SVG/1.1/DTD/svg11.dtd"><svg t="1665903354478" class="icon" viewBox="0 0 1024 1024" version="1.1" xmlns="http://www.w3.org/2000/svg" p-id="957" xmlns:xlink="http://www.w3.org/1999/xlink" width="200" height="200"><path d="M374.690909 977.454545l-4.654545-18.618181c-6.981818-30.254545-34.909091-51.2-67.490909-51.2s-60.509091 20.945455-67.49091 51.2l-4.654545 18.618181H69.818182c-25.6 0-46.545455-20.945455-46.545455-46.545454v-139.636364h23.272728c39.563636 0 69.818182-30.254545 69.818181-69.818182s-30.254545-69.818182-69.818181-69.818181H23.272727V325.818182h400.290909l6.981819 6.981818c9.309091 9.309091 20.945455 16.290909 34.90909 16.290909s25.6-4.654545 34.909091-16.290909l6.981819-6.981818H1000.727273v114.036363l-18.618182 4.654546c-30.254545 6.981818-51.2 34.909091-51.2 67.490909s20.945455 60.509091 51.2 67.490909l18.618182 4.654546V930.909091c0 25.6-20.945455 46.545455-46.545455 46.545454H374.690909z" fill="#F6B545" p-id="958" data-spm-anchor-id="a313x.7781069.0.i0" class=""></path><path d="M465.454545 349.090909c-16.290909 0-32.581818-9.309091-39.563636-23.272727H137.309091l-9.309091-44.218182L674.909091 46.545455h4.654545c167.563636 2.327273 304.872727 111.709091 318.836364 253.672727L1000.727273 325.818182H505.018182c-6.981818 13.963636-23.272727 23.272727-39.563637 23.272727z" fill="#FFCB5B" p-id="959" data-spm-anchor-id="a313x.7781069.0.i1" class="selected"></path><path d="M1000.727273 465.454545c13.963636 0 23.272727-9.309091 23.272727-23.272727v-116.363636c0-167.563636-155.927273-302.545455-349.090909-302.545455-2.327273 0-6.981818 0-9.309091 2.327273l-651.636364 279.272727c-9.309091 2.327273-13.963636 11.636364-13.963636 20.945455v330.472727c0 6.981818 4.654545 13.963636 9.309091 18.618182 6.981818 4.654545 13.963636 4.654545 20.945454 2.327273 32.581818-11.636364 62.836364 13.963636 62.836364 44.218181s-30.254545 55.854545-62.836364 44.218182c-6.981818-2.327273-13.963636-2.327273-20.945454 2.327273s-9.309091 11.636364-9.309091 18.618182V930.909091c0 39.563636 30.254545 69.818182 69.818182 69.818182h162.909091c13.963636 0 23.272727-9.309091 23.272727-23.272728 0-25.6 20.945455-46.545455 46.545455-46.545454s46.545455 20.945455 46.545454 46.545454c0 13.963636 9.309091 23.272727 23.272727 23.272728h581.818182c39.563636 0 69.818182-30.254545 69.818182-69.818182V581.818182c0-13.963636-9.309091-23.272727-23.272727-23.272727-25.6 0-46.545455-20.945455-46.545455-46.545455s20.945455-46.545455 46.545455-46.545455zM679.563636 69.818182c155.927273 2.327273 281.6 104.727273 295.563637 232.727273H505.018182c-9.309091 0-16.290909 4.654545-20.945455 11.636363-6.981818 13.963636-30.254545 13.963636-39.563636 0-2.327273-6.981818-11.636364-11.636364-18.618182-11.636363H137.309091L679.563636 69.818182zM977.454545 602.763636V930.909091c0 13.963636-9.309091 23.272727-23.272727 23.272727H393.309091c-9.309091-39.563636-46.545455-69.818182-90.763636-69.818182s-79.127273 30.254545-90.763637 69.818182H69.818182c-13.963636 0-23.272727-9.309091-23.272727-23.272727v-116.363636c51.2 0 93.090909-41.890909 93.090909-93.09091s-41.890909-93.090909-93.090909-93.090909V349.090909h367.70909c13.963636 13.963636 32.581818 23.272727 51.2 23.272727s39.563636-9.309091 51.2-23.272727H977.454545v72.145455c-39.563636 9.309091-69.818182 46.545455-69.818181 90.763636s30.254545 79.127273 69.818181 90.763636z" fill="#014463" p-id="960"></path><path d="M628.363636 535.272727m-93.090909 0a93.090909 93.090909 0 1 0 186.181818 0 93.090909 93.090909 0 1 0-186.181818 0Z" fill="#F19920" p-id="961"></path><path d="M558.545455 558.545455c0-51.2 41.890909-93.090909 93.090909-93.09091 18.618182 0 37.236364 6.981818 53.527272 16.29091-16.290909-23.272727-44.218182-39.563636-76.8-39.563637-51.2 0-93.090909 41.890909-93.090909 93.090909 0 32.581818 16.290909 60.509091 39.563637 76.8-9.309091-16.290909-16.290909-34.909091-16.290909-53.527272z" fill="#E78825" p-id="962"></path><path d="M256 535.272727m-46.545455 0a46.545455 46.545455 0 1 0 93.09091 0 46.545455 46.545455 0 1 0-93.09091 0Z" fill="#F19920" p-id="963"></path><path d="M837.818182 837.818182m-46.545455 0a46.545455 46.545455 0 1 0 93.090909 0 46.545455 46.545455 0 1 0-93.090909 0Z" fill="#F19920" p-id="964"></path><path d="M488.727273 768m-46.545455 0a46.545455 46.545455 0 1 0 93.090909 0 46.545455 46.545455 0 1 0-93.090909 0Z" fill="#F19920" p-id="965"></path><path d="M488.727273 768m-46.545455 0a46.545455 46.545455 0 1 0 93.090909 0 46.545455 46.545455 0 1 0-93.090909 0Z" fill="#F19920" p-id="966"></path><path d="M465.454545 791.272727c0-25.6 20.945455-46.545455 46.545455-46.545454 6.981818 0 13.963636 2.327273 18.618182 4.654545-6.981818-16.290909-23.272727-27.927273-41.890909-27.927273-25.6 0-46.545455 20.945455-46.545455 46.545455 0 18.618182 11.636364 34.909091 27.927273 41.890909-2.327273-4.654545-4.654545-11.636364-4.654546-18.618182zM814.545455 861.090909c0-25.6 20.945455-46.545455 46.545454-46.545454 6.981818 0 13.963636 2.327273 18.618182 4.654545-6.981818-16.290909-23.272727-27.927273-41.890909-27.927273-25.6 0-46.545455 20.945455-46.545455 46.545455 0 18.618182 11.636364 34.909091 27.927273 41.890909-2.327273-4.654545-4.654545-11.636364-4.654545-18.618182zM232.727273 558.545455c0-25.6 20.945455-46.545455 46.545454-46.545455 6.981818 0 13.963636 2.327273 18.618182 4.654545-6.981818-16.290909-23.272727-27.927273-41.890909-27.927272-25.6 0-46.545455 20.945455-46.545455 46.545454 0 18.618182 11.636364 34.909091 27.927273 41.890909-2.327273-4.654545-4.654545-11.636364-4.654545-18.618181z" fill="#E78825" p-id="967"></path><path d="M442.181818 232.727273a46.545455 23.272727 0 1 0 93.090909 0 46.545455 23.272727 0 1 0-93.090909 0Z" fill="#F6B545" p-id="968"></path><path d="M460.8 242.036364c0-13.963636 20.945455-23.272727 46.545455-23.272728 6.981818 0 16.290909 0 20.945454 2.327273-4.654545-6.981818-20.945455-11.636364-39.563636-11.636364-25.6 0-46.545455 9.309091-46.545455 23.272728 0 9.309091 9.309091 16.290909 25.6 20.945454-4.654545-4.654545-6.981818-6.981818-6.981818-11.636363z" fill="#F19920" p-id="969"></path><path d="M651.636364 197.818182a69.818182 34.909091 0 1 0 139.636363 0 69.818182 34.909091 0 1 0-139.636363 0Z" fill="#F6B545" p-id="970"></path><path d="M674.909091 221.090909c0-18.618182 30.254545-34.909091 69.818182-34.909091 18.618182 0 32.581818 2.327273 46.545454 9.309091-2.327273-18.618182-32.581818-32.581818-69.818182-32.581818-39.563636 0-69.818182 16.290909-69.818181 34.909091 0 9.309091 9.309091 18.618182 23.272727 25.6v-2.327273z" fill="#F19920" p-id="971"></path></svg>